<svg width="280" height="44" viewBox="0 0 280 44" fill="none" xmlns="http://www.w3.org/2000/svg">
<g id="Group 1">
<g id="Partial logo 1" clip-path="url(#clip0)">
<path id="greenTriangle" d="M23.4203 40.3109L-0.858826 0.897964L45.5514 3.18828L23.4203 40.3109Z" fill="#09FBD7"/>
<path id="blueTriangle" d="M50.7881 4.16734L73 43.8573H26.9088L50.7881 4.16734Z" fill="#00D1FF"/>
</g>
<g id="Yosef Blandin">
<path d="M69.808 9.86L77.118 22.44L84.496 9.86H87.828L78.648 25.194V34H75.588V25.126L66.442 9.86H69.808ZM95.3574 34.34C93.5894 34.34 92.0254 33.9207 90.6654 33.082C89.3281 32.2207 88.2854 31.0987 87.5374 29.716C86.7894 28.3107 86.4154 26.792 86.4154 25.16C86.4154 23.5053 86.7894 21.9867 87.5374 20.604C88.3081 19.1987 89.3621 18.0767 90.6994 17.238C92.0594 16.3767 93.6121 15.946 95.3574 15.946C97.1254 15.946 98.6781 16.3767 100.015 17.238C101.375 18.0767 102.429 19.1987 103.177 20.604C103.948 21.9867 104.333 23.5053 104.333 25.16C104.333 26.792 103.948 28.3107 103.177 29.716C102.429 31.0987 101.387 32.2207 100.049 33.082C98.7121 33.9207 97.1481 34.34 95.3574 34.34ZM89.4754 25.194C89.4754 26.418 89.7361 27.5287 90.2574 28.526C90.8014 29.5233 91.5154 30.3167 92.3994 30.906C93.2834 31.4727 94.2694 31.756 95.3574 31.756C96.4454 31.756 97.4314 31.4613 98.3154 30.872C99.2221 30.2827 99.9361 29.4893 100.457 28.492C101.001 27.472 101.273 26.35 101.273 25.126C101.273 23.902 101.001 22.7913 100.457 21.794C99.9361 20.7967 99.2221 20.0033 98.3154 19.414C97.4314 18.8247 96.4454 18.53 95.3574 18.53C94.2694 18.53 93.2834 18.836 92.3994 19.448C91.5154 20.0373 90.8014 20.8307 90.2574 21.828C89.7361 22.8253 89.4754 23.9473 89.4754 25.194ZM114.045 34.34C112.572 34.34 111.189 34.102 109.897 33.626C108.605 33.1273 107.494 32.3907 106.565 31.416L107.721 29.308C108.741 30.26 109.761 30.94 110.781 31.348C111.801 31.756 112.844 31.96 113.909 31.96C115.133 31.96 116.13 31.7333 116.901 31.28C117.672 30.804 118.057 30.1127 118.057 29.206C118.057 28.5487 117.853 28.0613 117.445 27.744C117.06 27.4267 116.504 27.166 115.779 26.962C115.054 26.7353 114.192 26.486 113.195 26.214C111.359 25.6927 109.954 25.0807 108.979 24.378C108.027 23.6527 107.551 22.5987 107.551 21.216C107.551 19.5387 108.186 18.2467 109.455 17.34C110.747 16.4107 112.39 15.946 114.385 15.946C117.06 15.946 119.168 16.7507 120.709 18.36L119.349 20.434C117.966 19.006 116.255 18.292 114.215 18.292C113.603 18.292 113.002 18.3713 112.413 18.53C111.824 18.666 111.336 18.9267 110.951 19.312C110.566 19.6747 110.373 20.196 110.373 20.876C110.373 21.7147 110.713 22.3153 111.393 22.678C112.073 23.0407 113.07 23.4147 114.385 23.8C115.722 24.1853 116.878 24.5707 117.853 24.956C118.85 25.3413 119.621 25.84 120.165 26.452C120.709 27.064 120.981 27.914 120.981 29.002C120.981 30.6793 120.346 31.994 119.077 32.946C117.808 33.8753 116.13 34.34 114.045 34.34ZM132.414 34.34C130.646 34.34 129.082 33.9207 127.722 33.082C126.362 32.2433 125.297 31.1213 124.526 29.716C123.756 28.3107 123.37 26.7807 123.37 25.126C123.37 23.4487 123.756 21.9187 124.526 20.536C125.297 19.1533 126.362 18.0427 127.722 17.204C129.105 16.3653 130.68 15.946 132.448 15.946C134.239 15.946 135.792 16.3767 137.106 17.238C138.444 18.0767 139.475 19.1873 140.2 20.57C140.948 21.93 141.322 23.4033 141.322 24.99C141.322 25.4887 141.3 25.874 141.254 26.146H126.532C126.623 27.302 126.94 28.3333 127.484 29.24C128.051 30.124 128.776 30.8267 129.66 31.348C130.544 31.8467 131.496 32.096 132.516 32.096C133.604 32.096 134.624 31.824 135.576 31.28C136.551 30.736 137.22 30.022 137.582 29.138L140.166 29.852C139.6 31.1667 138.614 32.2433 137.208 33.082C135.803 33.9207 134.205 34.34 132.414 34.34ZM126.43 24.072H138.534C138.444 22.916 138.115 21.896 137.548 21.012C136.982 20.128 136.256 19.4367 135.372 18.938C134.488 18.4393 133.514 18.19 132.448 18.19C131.406 18.19 130.442 18.4393 129.558 18.938C128.674 19.4367 127.949 20.128 127.382 21.012C126.838 21.896 126.521 22.916 126.43 24.072ZM145.401 34V18.598H142.987V16.252H145.401V15.878C145.401 13.702 145.888 11.9907 146.863 10.744C147.86 9.47467 149.186 8.84 150.841 8.84C152.292 8.84 153.595 9.20267 154.751 9.928L154.003 12.138C153.278 11.6393 152.428 11.39 151.453 11.39C150.478 11.39 149.719 11.7753 149.175 12.546C148.654 13.294 148.393 14.3707 148.393 15.776V16.252H153.119V18.598H148.393V34H145.401Z" fill="#4E4E4E"/>
<path d="M182.945 27.778C182.945 29.0247 182.628 30.1127 181.993 31.042C181.359 31.9713 180.497 32.6967 179.409 33.218C178.344 33.7393 177.165 34 175.873 34H164.415V9.86H176.417C177.551 9.86 178.525 10.166 179.341 10.778C180.18 11.3673 180.815 12.138 181.245 13.09C181.699 14.0193 181.925 14.994 181.925 16.014C181.925 17.1927 181.619 18.3033 181.007 19.346C180.418 20.366 179.568 21.1253 178.457 21.624C179.84 22.032 180.928 22.7913 181.721 23.902C182.537 24.99 182.945 26.282 182.945 27.778ZM167.475 12.512V20.57H175.159C176.225 20.57 177.109 20.1847 177.811 19.414C178.537 18.6207 178.899 17.6687 178.899 16.558C178.899 15.4247 178.559 14.4727 177.879 13.702C177.222 12.9087 176.383 12.512 175.363 12.512H167.475ZM179.851 27.234C179.851 26.486 179.681 25.7947 179.341 25.16C179.024 24.5253 178.582 24.0153 178.015 23.63C177.471 23.2447 176.837 23.052 176.111 23.052H167.475V31.348H175.873C176.621 31.348 177.29 31.1553 177.879 30.77C178.491 30.3847 178.967 29.886 179.307 29.274C179.67 28.6393 179.851 27.9593 179.851 27.234ZM186.818 9.18H189.81V29.41C189.81 30.3847 189.946 30.9853 190.218 31.212C190.49 31.4387 190.819 31.552 191.204 31.552C191.68 31.552 192.133 31.5067 192.564 31.416C192.995 31.3027 193.357 31.1893 193.652 31.076L194.128 33.524C193.629 33.728 193.04 33.898 192.36 34.034C191.68 34.17 191.079 34.238 190.558 34.238C189.402 34.238 188.484 33.9093 187.804 33.252C187.147 32.5947 186.818 31.6767 186.818 30.498V9.18ZM195.084 28.866C195.084 27.7327 195.402 26.758 196.036 25.942C196.694 25.1033 197.589 24.4573 198.722 24.004C199.856 23.5507 201.17 23.324 202.666 23.324C203.46 23.324 204.298 23.392 205.182 23.528C206.066 23.6413 206.848 23.8227 207.528 24.072V22.78C207.528 21.42 207.12 20.3547 206.304 19.584C205.488 18.7907 204.332 18.394 202.836 18.394C201.862 18.394 200.921 18.5753 200.014 18.938C199.13 19.278 198.19 19.7767 197.192 20.434L196.104 18.326C197.26 17.5327 198.416 16.9433 199.572 16.558C200.728 16.15 201.93 15.946 203.176 15.946C205.443 15.946 207.234 16.5807 208.548 17.85C209.863 19.0967 210.52 20.842 210.52 23.086V30.6C210.52 31.3027 210.838 31.6653 211.472 31.688V34C211.178 34.0453 210.917 34.0793 210.69 34.102C210.486 34.1247 210.316 34.136 210.18 34.136C209.478 34.136 208.945 33.9433 208.582 33.558C208.242 33.1727 208.05 32.7647 208.004 32.334L207.936 31.212C207.166 32.2093 206.157 32.98 204.91 33.524C203.664 34.068 202.428 34.34 201.204 34.34C200.026 34.34 198.972 34.102 198.042 33.626C197.113 33.1273 196.388 32.47 195.866 31.654C195.345 30.8153 195.084 29.886 195.084 28.866ZM206.644 30.124C206.916 29.8067 207.132 29.4893 207.29 29.172C207.449 28.832 207.528 28.5487 207.528 28.322V26.112C206.078 25.5453 204.582 25.262 203.04 25.262C201.522 25.262 200.286 25.568 199.334 26.18C198.405 26.7693 197.94 27.5853 197.94 28.628C197.94 29.1947 198.088 29.75 198.382 30.294C198.7 30.8153 199.153 31.246 199.742 31.586C200.354 31.926 201.102 32.096 201.986 32.096C202.916 32.096 203.8 31.9147 204.638 31.552C205.477 31.1667 206.146 30.6907 206.644 30.124ZM230.707 34H227.715V24.072C227.715 22.1907 227.42 20.8193 226.831 19.958C226.264 19.074 225.391 18.632 224.213 18.632C223.397 18.632 222.581 18.836 221.765 19.244C220.971 19.652 220.257 20.2073 219.623 20.91C219.011 21.59 218.569 22.3833 218.297 23.29V34H215.305V16.252H218.025V20.06C218.727 18.8133 219.736 17.816 221.051 17.068C222.388 16.32 223.839 15.946 225.403 15.946C226.785 15.946 227.851 16.2747 228.599 16.932C229.369 17.5667 229.913 18.4507 230.231 19.584C230.548 20.6947 230.707 21.964 230.707 23.392V34ZM234.203 25.16C234.203 23.4827 234.543 21.9527 235.223 20.57C235.926 19.1647 236.878 18.0427 238.079 17.204C239.303 16.3653 240.697 15.946 242.261 15.946C243.689 15.946 244.97 16.32 246.103 17.068C247.237 17.816 248.121 18.7227 248.755 19.788V9.18H251.747V30.6C251.747 31.3027 252.065 31.6653 252.699 31.688V34C252.133 34.0907 251.691 34.136 251.373 34.136C250.784 34.136 250.263 33.932 249.809 33.524C249.379 33.116 249.163 32.6627 249.163 32.164V30.668C248.461 31.8013 247.52 32.6967 246.341 33.354C245.163 34.0113 243.939 34.34 242.669 34.34C241.037 34.34 239.575 33.9207 238.283 33.082C237.014 32.2207 236.017 31.0987 235.291 29.716C234.566 28.3107 234.203 26.792 234.203 25.16ZM248.755 27.778V22.678C248.483 21.9073 248.041 21.216 247.429 20.604C246.817 19.9693 246.126 19.4707 245.355 19.108C244.607 18.7227 243.859 18.53 243.111 18.53C241.955 18.53 240.935 18.8473 240.051 19.482C239.19 20.1167 238.51 20.944 238.011 21.964C237.535 22.984 237.297 24.0607 237.297 25.194C237.297 26.3727 237.558 27.4607 238.079 28.458C238.623 29.4553 239.36 30.26 240.289 30.872C241.219 31.4613 242.25 31.756 243.383 31.756C244.109 31.756 244.857 31.586 245.627 31.246C246.398 30.8833 247.078 30.396 247.667 29.784C248.257 29.172 248.619 28.5033 248.755 27.778ZM256.742 12.92V9.18H259.734V12.92H256.742ZM256.742 34V16.252H259.734V34H256.742ZM279.98 34H276.988V24.072C276.988 22.1907 276.693 20.8193 276.104 19.958C275.537 19.074 274.665 18.632 273.486 18.632C272.67 18.632 271.854 18.836 271.038 19.244C270.245 19.652 269.531 20.2073 268.896 20.91C268.284 21.59 267.842 22.3833 267.57 23.29V34H264.578V16.252H267.298V20.06C268.001 18.8133 269.009 17.816 270.324 17.068C271.661 16.32 273.112 15.946 274.676 15.946C276.059 15.946 277.124 16.2747 277.872 16.932C278.643 17.5667 279.187 18.4507 279.504 19.584C279.821 20.6947 279.98 21.964 279.98 23.392V34Z" fill="#1FECCE"/>
</g>
</g>
<defs>
<clipPath id="clip0">
<rect width="73" height="44" fill="white"/>
</clipPath>
</defs>
</svg>
