<svg width="281" height="44" viewBox="0 0 281 44" fill="none" xmlns="http://www.w3.org/2000/svg">
<g id="Group 1">
<g id="Partial logo 1" clip-path="url(#clip0)">
<path id="greenTriangle" d="M23.4203 40.3109L-0.858826 0.897964L45.5514 3.18828L23.4203 40.3109Z" fill="#09FBD7"/>
<path id="blueTriangle" d="M50.7881 4.16734L73 43.8573H26.9088L50.7881 4.16734Z" fill="#00D1FF"/>
</g>
<g id="Yosef Blandin">
<path d="M69.808 9.86L77.118 22.44L84.496 9.86H87.828L78.648 25.194V34H75.588V25.126L66.442 9.86H69.808ZM95.3574 34.34C93.5894 34.34 92.0254 33.9207 90.6654 33.082C89.3281 32.2207 88.2854 31.0987 87.5374 29.716C86.7894 28.3107 86.4154 26.792 86.4154 25.16C86.4154 23.5053 86.7894 21.9867 87.5374 20.604C88.3081 19.1987 89.3621 18.0767 90.6994 17.238C92.0594 16.3767 93.6121 15.946 95.3574 15.946C97.1254 15.946 98.6781 16.3767 100.015 17.238C101.375 18.0767 102.429 19.1987 103.177 20.604C103.948 21.9867 104.333 23.5053 104.333 25.16C104.333 26.792 103.948 28.3107 103.177 29.716C102.429 31.0987 101.387 32.2207 100.049 33.082C98.7121 33.9207 97.1481 34.34 95.3574 34.34ZM89.4754 25.194C89.4754 26.418 89.7361 27.5287 90.2574 28.526C90.8014 29.5233 91.5154 30.3167 92.3994 30.906C93.2834 31.4727 94.2694 31.756 95.3574 31.756C96.4454 31.756 97.4314 31.4613 98.3154 30.872C99.2221 30.2827 99.9361 29.4893 100.457 28.492C101.001 27.472 101.273 26.35 101.273 25.126C101.273 23.902 101.001 22.7913 100.457 21.794C99.9361 20.7967 99.2221 20.0033 98.3154 19.414C97.4314 18.8247 96.4454 18.53 95.3574 18.53C94.2694 18.53 93.2834 18.836 92.3994 19.448C91.5154 20.0373 90.8014 20.8307 90.2574 21.828C89.7361 22.8253 89.4754 23.9473 89.4754 25.194ZM114.045 34.34C112.572 34.34 111.189 34.102 109.897 33.626C108.605 33.1273 107.494 32.3907 106.565 31.416L107.721 29.308C108.741 30.26 109.761 30.94 110.781 31.348C111.801 31.756 112.844 31.96 113.909 31.96C115.133 31.96 116.13 31.7333 116.901 31.28C117.672 30.804 118.057 30.1127 118.057 29.206C118.057 28.5487 117.853 28.0613 117.445 27.744C117.06 27.4267 116.504 27.166 115.779 26.962C115.054 26.7353 114.192 26.486 113.195 26.214C111.359 25.6927 109.954 25.0807 108.979 24.378C108.027 23.6527 107.551 22.5987 107.551 21.216C107.551 19.5387 108.186 18.2467 109.455 17.34C110.747 16.4107 112.39 15.946 114.385 15.946C117.06 15.946 119.168 16.7507 120.709 18.36L119.349 20.434C117.966 19.006 116.255 18.292 114.215 18.292C113.603 18.292 113.002 18.3713 112.413 18.53C111.824 18.666 111.336 18.9267 110.951 19.312C110.566 19.6747 110.373 20.196 110.373 20.876C110.373 21.7147 110.713 22.3153 111.393 22.678C112.073 23.0407 113.07 23.4147 114.385 23.8C115.722 24.1853 116.878 24.5707 117.853 24.956C118.85 25.3413 119.621 25.84 120.165 26.452C120.709 27.064 120.981 27.914 120.981 29.002C120.981 30.6793 120.346 31.994 119.077 32.946C117.808 33.8753 116.13 34.34 114.045 34.34ZM132.414 34.34C130.646 34.34 129.082 33.9207 127.722 33.082C126.362 32.2433 125.297 31.1213 124.526 29.716C123.756 28.3107 123.37 26.7807 123.37 25.126C123.37 23.4487 123.756 21.9187 124.526 20.536C125.297 19.1533 126.362 18.0427 127.722 17.204C129.105 16.3653 130.68 15.946 132.448 15.946C134.239 15.946 135.792 16.3767 137.106 17.238C138.444 18.0767 139.475 19.1873 140.2 20.57C140.948 21.93 141.322 23.4033 141.322 24.99C141.322 25.4887 141.3 25.874 141.254 26.146H126.532C126.623 27.302 126.94 28.3333 127.484 29.24C128.051 30.124 128.776 30.8267 129.66 31.348C130.544 31.8467 131.496 32.096 132.516 32.096C133.604 32.096 134.624 31.824 135.576 31.28C136.551 30.736 137.22 30.022 137.582 29.138L140.166 29.852C139.6 31.1667 138.614 32.2433 137.208 33.082C135.803 33.9207 134.205 34.34 132.414 34.34ZM126.43 24.072H138.534C138.444 22.916 138.115 21.896 137.548 21.012C136.982 20.128 136.256 19.4367 135.372 18.938C134.488 18.4393 133.514 18.19 132.448 18.19C131.406 18.19 130.442 18.4393 129.558 18.938C128.674 19.4367 127.949 20.128 127.382 21.012C126.838 21.896 126.521 22.916 126.43 24.072ZM145.401 34V18.598H142.987V16.252H145.401V15.878C145.401 13.702 145.888 11.9907 146.863 10.744C147.86 9.47467 149.186 8.84 150.841 8.84C152.292 8.84 153.595 9.20267 154.751 9.928L154.003 12.138C153.278 11.6393 152.428 11.39 151.453 11.39C150.478 11.39 149.719 11.7753 149.175 12.546C148.654 13.294 148.393 14.3707 148.393 15.776V16.252H153.119V18.598H148.393V34H145.401Z" fill="#F4F4F4"/>
<path d="M183.709 27.778C183.709 29.0247 183.392 30.1127 182.757 31.042C182.122 31.9713 181.261 32.6967 180.173 33.218C179.108 33.7393 177.929 34 176.637 34H165.179V9.86H177.181C178.314 9.86 179.289 10.166 180.105 10.778C180.944 11.3673 181.578 12.138 182.009 13.09C182.462 14.0193 182.689 14.994 182.689 16.014C182.689 17.1927 182.383 18.3033 181.771 19.346C181.182 20.366 180.332 21.1253 179.221 21.624C180.604 22.032 181.692 22.7913 182.485 23.902C183.301 24.99 183.709 26.282 183.709 27.778ZM168.239 12.512V20.57H175.923C176.988 20.57 177.872 20.1847 178.575 19.414C179.3 18.6207 179.663 17.6687 179.663 16.558C179.663 15.4247 179.323 14.4727 178.643 13.702C177.986 12.9087 177.147 12.512 176.127 12.512H168.239ZM180.615 27.234C180.615 26.486 180.445 25.7947 180.105 25.16C179.788 24.5253 179.346 24.0153 178.779 23.63C178.235 23.2447 177.6 23.052 176.875 23.052H168.239V31.348H176.637C177.385 31.348 178.054 31.1553 178.643 30.77C179.255 30.3847 179.731 29.886 180.071 29.274C180.434 28.6393 180.615 27.9593 180.615 27.234ZM187.582 9.18H190.574V29.41C190.574 30.3847 190.71 30.9853 190.982 31.212C191.254 31.4387 191.582 31.552 191.968 31.552C192.444 31.552 192.897 31.5067 193.328 31.416C193.758 31.3027 194.121 31.1893 194.416 31.076L194.892 33.524C194.393 33.728 193.804 33.898 193.124 34.034C192.444 34.17 191.843 34.238 191.322 34.238C190.166 34.238 189.248 33.9093 188.568 33.252C187.91 32.5947 187.582 31.6767 187.582 30.498V9.18ZM195.848 28.866C195.848 27.7327 196.165 26.758 196.8 25.942C197.457 25.1033 198.353 24.4573 199.486 24.004C200.619 23.5507 201.934 23.324 203.43 23.324C204.223 23.324 205.062 23.392 205.946 23.528C206.83 23.6413 207.612 23.8227 208.292 24.072V22.78C208.292 21.42 207.884 20.3547 207.068 19.584C206.252 18.7907 205.096 18.394 203.6 18.394C202.625 18.394 201.685 18.5753 200.778 18.938C199.894 19.278 198.953 19.7767 197.956 20.434L196.868 18.326C198.024 17.5327 199.18 16.9433 200.336 16.558C201.492 16.15 202.693 15.946 203.94 15.946C206.207 15.946 207.997 16.5807 209.312 17.85C210.627 19.0967 211.284 20.842 211.284 23.086V30.6C211.284 31.3027 211.601 31.6653 212.236 31.688V34C211.941 34.0453 211.681 34.0793 211.454 34.102C211.25 34.1247 211.08 34.136 210.944 34.136C210.241 34.136 209.709 33.9433 209.346 33.558C209.006 33.1727 208.813 32.7647 208.768 32.334L208.7 31.212C207.929 32.2093 206.921 32.98 205.674 33.524C204.427 34.068 203.192 34.34 201.968 34.34C200.789 34.34 199.735 34.102 198.806 33.626C197.877 33.1273 197.151 32.47 196.63 31.654C196.109 30.8153 195.848 29.886 195.848 28.866ZM207.408 30.124C207.68 29.8067 207.895 29.4893 208.054 29.172C208.213 28.832 208.292 28.5487 208.292 28.322V26.112C206.841 25.5453 205.345 25.262 203.804 25.262C202.285 25.262 201.05 25.568 200.098 26.18C199.169 26.7693 198.704 27.5853 198.704 28.628C198.704 29.1947 198.851 29.75 199.146 30.294C199.463 30.8153 199.917 31.246 200.506 31.586C201.118 31.926 201.866 32.096 202.75 32.096C203.679 32.096 204.563 31.9147 205.402 31.552C206.241 31.1667 206.909 30.6907 207.408 30.124ZM231.47 34H228.478V24.072C228.478 22.1907 228.184 20.8193 227.594 19.958C227.028 19.074 226.155 18.632 224.976 18.632C224.16 18.632 223.344 18.836 222.528 19.244C221.735 19.652 221.021 20.2073 220.386 20.91C219.774 21.59 219.332 22.3833 219.06 23.29V34H216.068V16.252H218.788V20.06C219.491 18.8133 220.5 17.816 221.814 17.068C223.152 16.32 224.602 15.946 226.166 15.946C227.549 15.946 228.614 16.2747 229.362 16.932C230.133 17.5667 230.677 18.4507 230.994 19.584C231.312 20.6947 231.47 21.964 231.47 23.392V34ZM234.967 25.16C234.967 23.4827 235.307 21.9527 235.987 20.57C236.69 19.1647 237.642 18.0427 238.843 17.204C240.067 16.3653 241.461 15.946 243.025 15.946C244.453 15.946 245.734 16.32 246.867 17.068C248 17.816 248.884 18.7227 249.519 19.788V9.18H252.511V30.6C252.511 31.3027 252.828 31.6653 253.463 31.688V34C252.896 34.0907 252.454 34.136 252.137 34.136C251.548 34.136 251.026 33.932 250.573 33.524C250.142 33.116 249.927 32.6627 249.927 32.164V30.668C249.224 31.8013 248.284 32.6967 247.105 33.354C245.926 34.0113 244.702 34.34 243.433 34.34C241.801 34.34 240.339 33.9207 239.047 33.082C237.778 32.2207 236.78 31.0987 236.055 29.716C235.33 28.3107 234.967 26.792 234.967 25.16ZM249.519 27.778V22.678C249.247 21.9073 248.805 21.216 248.193 20.604C247.581 19.9693 246.89 19.4707 246.119 19.108C245.371 18.7227 244.623 18.53 243.875 18.53C242.719 18.53 241.699 18.8473 240.815 19.482C239.954 20.1167 239.274 20.944 238.775 21.964C238.299 22.984 238.061 24.0607 238.061 25.194C238.061 26.3727 238.322 27.4607 238.843 28.458C239.387 29.4553 240.124 30.26 241.053 30.872C241.982 31.4613 243.014 31.756 244.147 31.756C244.872 31.756 245.62 31.586 246.391 31.246C247.162 30.8833 247.842 30.396 248.431 29.784C249.02 29.172 249.383 28.5033 249.519 27.778ZM257.506 12.92V9.18H260.498V12.92H257.506ZM257.506 34V16.252H260.498V34H257.506ZM280.744 34H277.752V24.072C277.752 22.1907 277.457 20.8193 276.868 19.958C276.301 19.074 275.428 18.632 274.25 18.632C273.434 18.632 272.618 18.836 271.802 19.244C271.008 19.652 270.294 20.2073 269.66 20.91C269.048 21.59 268.606 22.3833 268.334 23.29V34H265.342V16.252H268.062V20.06C268.764 18.8133 269.773 17.816 271.088 17.068C272.425 16.32 273.876 15.946 275.44 15.946C276.822 15.946 277.888 16.2747 278.636 16.932C279.406 17.5667 279.95 18.4507 280.268 19.584C280.585 20.6947 280.744 21.964 280.744 23.392V34Z" fill="#1FECCE"/>
</g>
</g>
<defs>
<clipPath id="clip0">
<rect width="73" height="44" fill="white"/>
</clipPath>
</defs>
</svg>
