<svg width="1004" height="1004" viewBox="0 0 1004 1004" fill="none" xmlns="http://www.w3.org/2000/svg">
<g id="reactjs-icon 1">
<g id="Group">
<path id="dot" d="M502.28 590.404C551.598 590.213 591.422 550.078 591.231 500.761C591.04 451.444 550.905 411.62 501.588 411.811C452.271 412.002 412.447 452.136 412.638 501.453C412.829 550.771 452.963 590.595 502.28 590.404Z" fill="#08FFDA"/>
<g id="Group_2">
<path id="axisThree" fill-rule="evenodd" clip-rule="evenodd" d="M501.232 319.549C621.125 319.084 732.569 335.856 816.659 364.441C917.976 398.883 980.391 451.442 980.576 499.252C980.769 549.074 915.056 605.422 806.54 641.844C724.499 669.378 616.455 684.005 502.647 684.446C385.961 684.898 275.415 671.991 192.233 643.925C86.993 608.409 23.4693 551.835 23.2799 502.962C23.0961 455.54 82.2912 402.918 181.916 367.75C266.093 338.036 380.152 320.018 501.216 319.549L501.232 319.549Z" stroke="#00D1FF" stroke-width="5"/>
<path id="axisTwo" fill-rule="evenodd" clip-rule="evenodd" d="M343.534 411.464C403.028 307.373 473.229 219.211 540.001 160.646C620.451 90.0843 697.164 62.2751 738.671 85.9967C781.929 110.719 797.912 195.797 775.251 307.994C758.136 392.821 716.814 493.719 660.34 592.529C602.437 693.837 536.032 783.152 470.171 841.172C386.83 914.597 306.086 941.364 263.654 917.112C222.48 893.597 206.469 816.015 225.775 712.143C242.087 624.378 283.459 516.571 343.515 411.462L343.534 411.464Z" stroke="#00D1FF" stroke-width="5"/>
<path id="axisOne" fill-rule="evenodd" clip-rule="evenodd" d="M344.391 594.019C283.924 490.51 242.621 385.641 225.213 298.544C204.258 193.605 218.475 113.253 259.76 89.1414C302.782 64.0118 384.473 92.6525 470.358 168.319C535.294 225.526 602.079 311.7 659.483 409.976C718.336 510.733 762.548 612.872 779.927 698.907C801.918 807.782 784.784 891.101 742.581 915.751C701.632 939.669 626.431 914.805 546.083 846.202C478.195 788.241 405.456 698.555 344.391 594.017L344.391 594.019Z" stroke="#00D1FF" stroke-width="5"/>
</g>
</g>
</g>
</svg>
